<?xml version="1.0" encoding="UTF-8"?>
<svg width="163px" height="117px" viewBox="0 0 163 117" version="1.1" xmlns="http://www.w3.org/2000/svg" xmlns:xlink="http://www.w3.org/1999/xlink">
    <!-- Generator: Sketch 55.2 (78181) - https://sketchapp.com -->
    <title>ICON-暂无数据</title>
    <desc>Created with Sketch.</desc>
    <defs>
        <linearGradient x1="50%" y1="0%" x2="50%" y2="100%" id="linearGradient-1">
            <stop stop-color="#EEEEEE" offset="0%"></stop>
            <stop stop-color="#D8D8D8" offset="100%"></stop>
        </linearGradient>
        <filter x="-6.0%" y="-46.0%" width="112.0%" height="192.0%" filterUnits="objectBoundingBox" id="filter-2">
            <feGaussianBlur stdDeviation="3" in="SourceGraphic"></feGaussianBlur>
        </filter>
        <linearGradient x1="50%" y1="0%" x2="50%" y2="100%" id="linearGradient-3">
            <stop stop-color="#EEEEEE" offset="0%"></stop>
            <stop stop-color="#D8D8D8" offset="100%"></stop>
        </linearGradient>
        <filter x="-9.6%" y="-46.0%" width="119.1%" height="192.0%" filterUnits="objectBoundingBox" id="filter-4">
            <feGaussianBlur stdDeviation="3" in="SourceGraphic"></feGaussianBlur>
        </filter>
        <linearGradient x1="39.9501529%" y1="39.1913288%" x2="100%" y2="69.2159978%" id="linearGradient-5">
            <stop stop-color="#EAEAEA" offset="0%"></stop>
            <stop stop-color="#DDDDDD" offset="100%"></stop>
        </linearGradient>
        <linearGradient x1="12.2337299%" y1="11.7193732%" x2="100%" y2="100%" id="linearGradient-6">
            <stop stop-color="#F9F9F9" offset="0.0211148649%"></stop>
            <stop stop-color="#D7D7D7" stop-opacity="0.788980551" offset="100%"></stop>
        </linearGradient>
    </defs>
    <g id="缺省页设计" stroke="none" stroke-width="1" fill="none" fill-rule="evenodd">
        <g id="暂无数据" transform="translate(-615.000000, -286.000000)">
            <g id="编组-5" transform="translate(616.000000, 248.000000)">
                <g id="ICON-暂无数据_export">
                    <g id="ICON-暂无数据">
                        <rect id="矩形" x="0" y="0" width="160" height="160"></rect>
                        <g id="drawer-抽屉" transform="translate(5.000000, 38.000000)">
                            <g id="编组-3" transform="translate(0.000000, 90.444444)" fill-opacity="0.83" opacity="0.457984561">
                                <ellipse id="椭圆形" fill="url(#linearGradient-1)" filter="url(#filter-2)" cx="75.1666667" cy="9.77777778" rx="75.1666667" ry="9.77777778"></ellipse>
                                <ellipse id="椭圆形" fill="url(#linearGradient-3)" filter="url(#filter-4)" cx="72.7222222" cy="9.77777778" rx="47.0555556" ry="9.77777778"></ellipse>
                            </g>
                            <path d="M131.332166,40.1987822 L131.332166,77.6869365 C131.332166,78.9414792 130.707386,79.5614003 129.457827,79.5614003 L24.4909698,79.5614003 C23.2414103,79.5614003 22.616506,78.9414792 22.616506,77.6869365 L22.616506,40.1987821 C22.616506,39.8863299 22.6944945,39.6521153 22.8504714,39.4958892 L22.8504714,39.2615501 L23.0854333,39.027211 L41.8295728,12.8676019 C42.1415266,12.3990482 42.6103294,12.1647091 43.2352337,12.1647091 L110.713812,12.1647091 C111.338592,12.1647091 111.807395,12.3990483 112.119348,12.867602 L130.863488,39.0272111 L131.09845,39.2615502 L131.09845,39.4958894 C131.254178,39.6519909 131.332166,39.88633 131.332166,40.1987822 Z M28.4736136,38.3243183 L61.9791242,38.3243183 C63.2286836,38.3243183 63.8534634,38.9490981 63.8534634,40.1987821 C63.8534634,43.7962177 65.1420171,46.8763879 67.719249,49.45362 C70.296481,52.0308519 73.3815101,53.3196548 76.9744606,53.3196548 C80.5672866,53.3196548 83.6523157,52.0309766 86.2294231,49.45362 C88.806655,46.8763881 90.0952087,43.7962177 90.0952087,40.1987821 C90.0952087,38.9492226 90.7201131,38.3243183 91.9696725,38.3243183 L125.475059,38.3243183 L109.775957,15.9136367 L44.1717183,15.9136367 L28.4736136,38.3243183 Z" id="形状" fill="url(#linearGradient-5)" fill-rule="nonzero"></path>
                            <circle id="椭圆形" fill="url(#linearGradient-6)" cx="67.2222222" cy="25.6666667" r="6.11111111"></circle>
                            <circle id="椭圆形" fill="url(#linearGradient-6)" cx="90.4444444" cy="3.66666667" r="3.66666667"></circle>
                        </g>
                    </g>
                </g>
            </g>
        </g>
    </g>
</svg>